<?xml version="1.0" encoding="UTF-8"?>
<svg xmlns="http://www.w3.org/2000/svg" width="222" height="246" viewBox="0 0 222 246" overflow="hidden">
  <g transform="matrix(1 0 0 1.00144 0 0.142011)">
    <path d="M162.409 180.136C157.064 187.212 151.306 193.837 145.058 200.047 145.058 200.009 145.058 199.934 145.02 199.896 143.627 191.014 143.025 182.018 141.557 173.173 140.955 169.522 140.428 165.834 139.864 162.183 139.186 163.877 139.45 165.608 139.337 167.302 138.734 176.636 138.132 186.008 137.944 195.38 137.869 199.181 138.057 202.983 137.455 206.747 137.417 207.499 136.74 207.725 136.25 208.102 135.535 208.629 134.933 209.268 134.406 209.946 127.368 216.043 119.84 221.727 111.898 226.996 109.941 228.313 108.398 228.238 106.478 226.958 96.6925 220.372 87.5465 213.183 79.1155 205.316 79.1908 190.939 77.7605 176.636 77.3841 162.183 76.6314 162.522 76.6314 162.973 76.5185 163.387 75.1258 164.479 75.0129 165.759 76.2174 167.189 75.7281 170.275 75.1635 173.324 74.7495 176.448 73.8462 183.449 73.0557 190.487 72.2277 197.525 72.2277 197.826 72.1148 198.127 72.0772 198.429 65.8669 192.068 60.1082 185.293 54.8012 178.066 55.14 175.131 55.6293 172.232 56.0809 169.334 57.737 158.72 59.9577 148.182 62.103 137.643 64.0602 128.12 70.2329 122.324 78.852 118.786 82.1642 117.431 85.7022 116.603 89.0143 115.211 92.4394 113.78 93.832 110.732 94.8859 107.57 95.3376 106.177 95.6763 106.14 96.6173 107.081 98.3486 108.812 100.042 110.543 101.473 112.538 102.903 114.157 104.333 115.737 105.763 117.356 105.801 117.356 105.876 117.356 105.914 117.394 109.377 120.405 108.699 120.028 111.785 117.017 114.947 113.968 117.506 110.393 120.216 106.968 120.48 106.667 120.63 106.14 121.082 106.177 121.571 106.253 121.496 106.817 121.647 107.194 121.948 108.059 122.211 108.963 122.475 109.866 123.566 111.07 124.319 112.501 125.185 113.856 129.099 115.7 133.202 117.092 137.267 118.598 146.902 122.174 152.924 128.798 154.994 139.036 157.441 151.117 159.849 163.199 161.769 175.356 162.032 176.937 162.221 178.518 162.409 180.099Z" fill="#27991A"/>
    <path d="M192.595 121.421C188.718 133.578 183.637 145.472 177.276 157.102 173.663 163.726 169.673 170.087 165.382 176.109 165.006 173.776 164.742 171.404 164.404 169.033 162.635 157.93 161.393 146.751 158.419 135.874 155.935 126.69 150.176 120.254 141.482 116.415 141.143 116.264 140.842 116.114 140.428 115.888 140.805 115.248 141.407 115.022 141.934 114.759 143.891 113.78 145.848 112.802 147.843 111.898 150.666 110.619 151.87 108.473 151.757 105.425 151.644 102.94 151.757 102.94 149.386 103.806 148.709 104.07 147.993 104.22 147.278 104.258 143.665 104.446 140.24 103.618 136.928 102.225 136.363 102 135.761 101.736 136.627 101.059 141.482 97.3324 142.047 91.7996 142.799 86.3797 143.552 80.9598 143.364 75.427 144.38 70.0447 146.074 61.3126 152.924 55.3658 161.807 55.14 169.748 54.9518 176.335 59.2425 178.367 68.3133 179.045 71.2868 179.384 74.2602 179.384 77.2712 179.384 82.7664 179.873 88.1863 181.454 93.4557 182.357 96.3538 183.674 98.9885 186.384 100.607 187.438 101.247 186.987 101.661 186.271 102.112 182.131 104.634 177.878 104.935 173.437 102.978 172.985 102.79 172.609 102.338 171.931 102.451 171.743 104.333 171.781 106.177 172.232 107.984 172.609 109.565 173.888 110.468 175.281 111.146 178.367 112.651 181.416 114.232 184.578 115.662 187.702 117.055 190.487 118.824 192.595 121.421Z" fill="#CE1922"/>
    <path d="M115.248 49.7953C115.549 50.4728 115.813 50.7739 116.076 49.7953 116.453 48.2145 116.904 46.6714 117.168 45.0906 117.356 44.0743 117.695 43.9238 118.711 44.1496 124.62 45.4669 126.577 50.1341 128.083 55.1776 129.212 58.9791 129.551 62.9311 129.965 66.8831 130.078 67.824 130.303 68.2381 131.32 68.3886 133.164 68.6521 135.046 68.9532 136.175 70.9856 132.9 71.8513 129.626 72.5665 126.314 72.5665 115.173 72.4912 103.994 72.9805 92.8534 72.0772 89.6918 71.8137 86.5302 71.776 83.3686 71.4373 82.2771 71.3244 82.3148 70.9856 82.7664 70.1952 83.5568 68.765 84.3472 67.3347 86.3044 67.41 87.1324 67.4477 87.3206 66.996 87.3583 66.2432 87.5465 64.0226 87.8099 61.8019 88.111 59.5813 88.6756 55.2152 90.6704 51.4514 93.1169 47.9134 94.8483 45.4293 97.6335 44.7518 100.419 44.1496 101.284 43.9614 101.209 44.5636 101.284 45.0529 101.51 47.0101 101.698 49.0049 101.924 50.9621 101.962 51.4138 101.849 51.9031 102.451 52.43 102.639 50.3976 102.79 48.5156 102.94 46.5961 103.129 44.3754 103.43 42.1548 103.881 39.9341 104.032 39.1061 104.484 38.7673 105.199 38.6168 108.549 37.9017 111.673 38.7673 114.759 40.0847 115.323 40.3105 115.323 40.7622 115.361 41.2515" fill="#27991A"/>
    <path d="M89.466 80.2446C89.5789 78.438 89.6542 76.5937 89.3907 74.7871 89.2402 73.7709 89.6166 73.6956 90.4822 73.6956 97.784 73.9214 105.048 74.0343 112.35 74.2978 117.356 74.486 122.362 74.3354 127.33 73.9214 127.97 73.8838 128.534 73.8085 128.384 74.7118 127.857 77.7605 128.233 80.8469 128.158 83.8956 128.12 85.6269 127.744 87.283 127.179 88.9391 126.765 90.0682 126.088 91.0468 125.034 91.4985 123.792 92.0254 123.416 92.9664 123.19 94.1331 122.813 96.0903 122.362 98.0099 121.609 99.8541 118.033 108.963 107.495 111.673 99.8165 105.65 95.7892 102.489 94.7354 98.1981 94.1708 93.5686 94.0579 92.7782 93.8697 92.2136 93.0793 91.8372 90.4446 90.7081 89.5036 88.4874 89.466 85.8151 89.466 83.9332 89.466 82.0513 89.466 80.1694Z" fill="#27991A"/>
    <path d="M54.1614 82.7288C49.1179 82.5029 44.0367 82.7664 38.9932 82.2018 36.9231 81.976 34.8906 81.4867 33.0087 80.5458 32.3312 80.207 32.143 79.8306 32.4441 79.0779 33.0463 77.4218 33.6109 75.8033 35.5305 75.2764 36.3209 75.0506 36.4338 74.3354 36.5467 73.6956 37.1113 70.8351 37.9017 68.0499 38.6921 65.227 39.7459 61.4255 42.1171 58.7532 45.3917 56.7584 46.7466 55.9304 47.9134 54.9894 48.7415 53.5592 50.1717 51.1503 52.5429 50.5857 55.1023 50.8116 57.8499 51.075 60.3717 51.9784 61.1244 55.1023 61.3126 55.968 61.8019 56.4573 62.5547 56.796 66.3938 58.4521 68.5015 61.5385 69.5178 65.4905 70.1952 68.1251 70.948 70.7222 71.5502 73.3569 71.776 74.2978 72.0772 74.9753 73.0181 75.3517 74.9377 76.1421 75.3893 77.8358 75.6528 79.6424 75.7657 80.4705 75.1635 80.6963 74.5989 80.9598 72.1148 82.0889 69.4801 82.3524 66.8078 82.4653 62.5923 82.6535 58.3769 82.8793 54.1614 82.7288Z" fill="#1777AD"/>
    <path d="M217.85 18.7438C217.737 17.0877 217.135 16.335 215.516 16.0339 212.769 15.4693 210.059 14.6789 207.311 14.039 174.415 5.94684 141.219 0.301106 107.194 0 96.8431 0.602211 86.4549 0.903317 76.1044 1.80663 51.188 4.06493 26.836 9.33427 2.78523 16.0339 1.09151 16.4855 0.715126 17.2759 0.639849 18.8191-0.338744 36.7725-0.338744 54.6883 1.73136 72.6041 5.60809 105.989 15.394 137.455 32.2559 166.587 50.661 198.353 75.6528 223.797 106.027 244.197 108.247 245.702 110.054 245.777 112.35 244.272 144.23 223.157 170.162 196.471 188.53 162.785 213.107 117.808 221.049 69.4048 217.812 18.7438ZM192.595 121.421C188.718 133.578 183.637 145.472 177.276 157.102 173.663 163.726 169.673 170.087 165.382 176.109 164.404 177.464 163.425 178.819 162.409 180.174 157.064 187.25 151.306 193.874 145.058 200.085 141.633 203.51 138.095 206.784 134.444 209.946 127.405 216.043 119.878 221.727 111.936 226.996 109.979 228.313 108.436 228.238 106.516 226.958 96.7302 220.372 87.5841 213.183 79.1531 205.316 76.7443 203.058 74.3731 200.762 72.0772 198.391 65.8669 192.03 60.1082 185.255 54.8012 178.029 53.7474 176.561 52.6935 175.093 51.6396 173.625 48.6662 169.334 45.8433 164.931 43.2087 160.339 35.6434 147.316 29.7718 133.729 25.3681 119.652 21.3409 106.742 18.5933 93.418 17.0125 79.7177 15.2435 64.3613 15.2058 48.9673 16.0715 33.5733 16.1468 32.2183 16.4855 31.5785 17.9158 31.1644 38.5792 25.4434 59.4684 20.9268 80.8092 18.9697 89.6542 18.1793 98.5745 17.9158 107.457 17.3888 136.627 17.6523 165.156 22.47 193.347 29.4331 195.681 29.9976 198.015 30.6751 200.386 31.1644 201.741 31.4655 202.305 32.0677 202.381 33.498 204.338 63.872 201.59 93.2675 192.557 121.383Z" fill="#283138"/>
    <path d="M75.8033 115.7C73.9967 116.678 72.1901 117.582 70.4964 118.673 62.9311 123.416 59.0167 130.567 57.2853 139.073 54.9894 150.515 53.371 162.07 51.6396 173.625 48.6662 169.334 45.8433 164.931 43.2087 160.339 35.6434 147.316 29.7718 133.729 25.3681 119.652 28.0781 117.017 31.4279 115.399 34.853 113.856 35.6434 113.479 36.4714 113.14 37.2618 112.764 39.0308 111.898 40.7998 110.957 42.1924 109.527 44.3754 107.344 44.9776 104.597 43.698 101.774 43.0957 100.456 42.343 99.1767 41.5526 97.9722 39.8212 95.2999 39.1437 92.3642 39.0685 89.2402 39.0685 88.0358 39.1814 86.7937 38.9932 85.6646 38.6921 84.0461 39.4448 84.0461 40.6869 84.159 50.0964 85.0247 59.5436 84.9494 68.9532 84.1967 69.7812 84.1214 70.12 84.3096 70.0447 85.1752 69.9318 86.4173 69.8565 87.6594 69.7436 88.9014 69.3296 92.3642 68.5392 95.6763 66.2809 98.4615 65.7539 99.1014 65.3023 99.8165 64.8883 100.532 63.0816 103.769 64.0226 108.135 66.9584 110.355 69.3672 112.199 71.9642 113.743 74.7495 114.985 75.1258 115.173 75.6528 115.173 75.841 115.737Z" fill="#1777AD"/>
  </g>
</svg>
